# xmcd
#
# Track frame offsets:
#	150
#	17320
#	34595
#	48930
#	64095
#	78900
#	93730
#	107970
#	121720
#	136202
#	151845
#
# Disc length: 2279 seconds
#
# Revision: 0
# Processed by: cddbd v1.5.1PL0 Copyright (c) Steve Scherf et al.
# Submitted via: dBpowerAMP V4.0
#
DISCID=7c08e50b
DTITLE=Don Williams - Prime Cuts (Bonus Track)
DYEAR=1900
DGENRE=Country
TTITLE0=Old Coyote Town
TTITLE1=Heartbreak In The Darkness
TTITLE2=I'll Never Be In Love Again
TTITLE3=I Wouldn't Be A Man
TTITLE4=What's The Score
TTITLE5=We've Got A Good Fire Goin'
TTITLE6=Desperately
TTITLE7=She's A Heart Full
TTITLE8=Another Place, Another Time
TTITLE9=Then It's Love
TTITLE10=Señorita (Bonus Track)
EXTD=
EXTT0=
EXTT1=
EXTT2=
EXTT3=
EXTT4=
EXTT5=
EXTT6=
EXTT7=
EXTT8=
EXTT9=
EXTT10=
PLAYORDER=
